<mxfile host="www.draw.io" modified="2019-10-17T14:06:20.553Z" agent="Mozilla/5.0 (Windows NT 10.0; Win64; x64) AppleWebKit/537.36 (KHTML, like Gecko) Chrome/77.0.3865.120 Safari/537.36" etag="fWDZhW8jmWWD6uZlhpbO" version="12.1.3" type="github" pages="1">
  <diagram id="B4XK_0Hln9eRdX3QcIPv" name="Page-1">
    <mxGraphModel dx="1346" dy="859" grid="1" gridSize="10" guides="1" tooltips="1" connect="1" arrows="1" fold="1" page="1" pageScale="1" pageWidth="850" pageHeight="1100" math="0" shadow="0">
      <root>
        <mxCell id="0"/>
        <mxCell id="1" parent="0"/>
        <mxCell id="PcscQ1ydCQ4jhYNcUpiW-1" value="Template DataStore" style="rounded=1;whiteSpace=wrap;html=1;fillColor=#dae8fc;strokeColor=none;" parent="1" vertex="1">
          <mxGeometry x="280" y="160" width="140" height="70" as="geometry"/>
        </mxCell>
        <mxCell id="PcscQ1ydCQ4jhYNcUpiW-2" value="Device Config Template" style="shape=cylinder;whiteSpace=wrap;html=1;boundedLbl=1;backgroundOutline=1;fillColor=#fff2cc;strokeColor=#d6b656;" parent="1" vertex="1">
          <mxGeometry x="140" y="40" width="80" height="40" as="geometry"/>
        </mxCell>
        <mxCell id="PcscQ1ydCQ4jhYNcUpiW-4" value="Hierarchy Template&amp;nbsp;" style="shape=cylinder;whiteSpace=wrap;html=1;boundedLbl=1;backgroundOutline=1;fillColor=#fff2cc;strokeColor=#d6b656;" parent="1" vertex="1">
          <mxGeometry x="260" y="40" width="80" height="40" as="geometry"/>
        </mxCell>
        <mxCell id="PcscQ1ydCQ4jhYNcUpiW-5" value="Topology template" style="shape=cylinder;whiteSpace=wrap;html=1;boundedLbl=1;backgroundOutline=1;fillColor=#fff2cc;strokeColor=#d6b656;" parent="1" vertex="1">
          <mxGeometry x="370" y="40" width="80" height="40" as="geometry"/>
        </mxCell>
        <mxCell id="PcscQ1ydCQ4jhYNcUpiW-6" value="Alarm Templates" style="shape=cylinder;whiteSpace=wrap;html=1;boundedLbl=1;backgroundOutline=1;fillColor=#fff2cc;strokeColor=#d6b656;" parent="1" vertex="1">
          <mxGeometry x="480" y="40" width="80" height="40" as="geometry"/>
        </mxCell>
        <mxCell id="PcscQ1ydCQ4jhYNcUpiW-7" value="" style="endArrow=classic;startArrow=classic;html=1;entryX=0.5;entryY=1;entryDx=0;entryDy=0;exitX=0.5;exitY=0;exitDx=0;exitDy=0;strokeColor=#190033;" parent="1" source="PcscQ1ydCQ4jhYNcUpiW-1" target="PcscQ1ydCQ4jhYNcUpiW-2" edge="1">
          <mxGeometry width="50" height="50" relative="1" as="geometry">
            <mxPoint x="140" y="300" as="sourcePoint"/>
            <mxPoint x="190" y="250" as="targetPoint"/>
          </mxGeometry>
        </mxCell>
        <mxCell id="j7HrswJJdAMiraN6C7io-1" value="" style="endArrow=classic;startArrow=classic;html=1;entryX=0.5;entryY=1;entryDx=0;entryDy=0;exitX=0.5;exitY=0;exitDx=0;exitDy=0;strokeColor=#190033;" edge="1" parent="1" source="PcscQ1ydCQ4jhYNcUpiW-1" target="PcscQ1ydCQ4jhYNcUpiW-4">
          <mxGeometry width="50" height="50" relative="1" as="geometry">
            <mxPoint x="490" y="170" as="sourcePoint"/>
            <mxPoint x="320" y="90" as="targetPoint"/>
          </mxGeometry>
        </mxCell>
        <mxCell id="j7HrswJJdAMiraN6C7io-3" value="" style="endArrow=classic;startArrow=classic;html=1;entryX=0.5;entryY=1;entryDx=0;entryDy=0;exitX=0.5;exitY=0;exitDx=0;exitDy=0;strokeColor=#190033;" edge="1" parent="1" source="PcscQ1ydCQ4jhYNcUpiW-1" target="PcscQ1ydCQ4jhYNcUpiW-5">
          <mxGeometry width="50" height="50" relative="1" as="geometry">
            <mxPoint x="505" y="190" as="sourcePoint"/>
            <mxPoint x="455" y="110" as="targetPoint"/>
          </mxGeometry>
        </mxCell>
        <mxCell id="j7HrswJJdAMiraN6C7io-4" value="" style="endArrow=classic;startArrow=classic;html=1;entryX=0.5;entryY=1;entryDx=0;entryDy=0;exitX=0.5;exitY=0;exitDx=0;exitDy=0;strokeColor=#190033;" edge="1" parent="1" source="PcscQ1ydCQ4jhYNcUpiW-1" target="PcscQ1ydCQ4jhYNcUpiW-6">
          <mxGeometry width="50" height="50" relative="1" as="geometry">
            <mxPoint x="520" y="195" as="sourcePoint"/>
            <mxPoint x="580" y="115" as="targetPoint"/>
          </mxGeometry>
        </mxCell>
        <mxCell id="j7HrswJJdAMiraN6C7io-5" value="Template Validator Engine" style="rounded=0;whiteSpace=wrap;html=1;fillColor=#dae8fc;strokeColor=none;" vertex="1" parent="1">
          <mxGeometry x="480" y="165" width="120" height="60" as="geometry"/>
        </mxCell>
        <mxCell id="j7HrswJJdAMiraN6C7io-6" value="" style="shape=flexArrow;endArrow=classic;startArrow=classic;html=1;strokeColor=#190033;exitX=1;exitY=0.5;exitDx=0;exitDy=0;entryX=0;entryY=0.5;entryDx=0;entryDy=0;" edge="1" parent="1" source="PcscQ1ydCQ4jhYNcUpiW-1" target="j7HrswJJdAMiraN6C7io-5">
          <mxGeometry width="50" height="50" relative="1" as="geometry">
            <mxPoint x="290" y="440" as="sourcePoint"/>
            <mxPoint x="340" y="390" as="targetPoint"/>
          </mxGeometry>
        </mxCell>
      </root>
    </mxGraphModel>
  </diagram>
</mxfile>
